<?xml version="1.0" encoding="UTF-8"?>
<svg xmlns="http://www.w3.org/2000/svg" xmlns:xlink="http://www.w3.org/1999/xlink" width="300px" height="200px" viewBox="0 0 300 200" version="1.1">
<g id="surface1">
<path style=" stroke:none;fill-rule:nonzero;fill:rgb(0%,0%,0%);fill-opacity:1;" d="M 174.65625 57.855469 C 173.058594 58.65625 172 59.828125 171.429688 61.484375 C 170.914062 62.886719 170.515625 63 169.601562 62 C 167.542969 59.65625 164.144531 59.457031 161.800781 61.515625 C 161.230469 62 160.601562 62.828125 160.398438 63.34375 C 159.914062 64.457031 159.886719 66.515625 160.3125 67.628906 C 160.6875 68.65625 162.144531 70.144531 163.171875 70.601562 C 164.828125 71.285156 163.828125 71.742188 162.027344 71.113281 C 161.515625 70.941406 161.058594 70.855469 160.972656 70.941406 C 160.6875 71.199219 162.058594 74 162.457031 74 C 162.6875 74 162.855469 73.855469 162.855469 73.714844 C 162.855469 73.542969 163.113281 73.429688 163.429688 73.429688 C 163.972656 73.429688 164 73.628906 164 76.855469 L 164 80.285156 L 164.941406 80.285156 C 165.828125 80.285156 165.886719 80.34375 165.769531 81.085938 C 165.65625 81.855469 165.542969 81.914062 163.542969 82.257812 C 162.371094 82.457031 161.285156 82.515625 161.113281 82.429688 C 160.742188 82.171875 158 82.484375 157.457031 82.828125 C 157.199219 83 157.144531 83.34375 157.257812 83.855469 C 157.457031 84.601562 157.484375 84.628906 158.941406 84.429688 C 159.769531 84.3125 160.769531 84 161.171875 83.714844 C 161.570312 83.429688 162.65625 83.058594 163.601562 82.855469 C 166.171875 82.34375 166.199219 82.34375 166.398438 81.285156 L 166.601562 80.285156 L 170.285156 80.285156 L 170.285156 71.398438 L 173.65625 71.484375 L 177 71.570312 L 177.085938 72.34375 L 177.171875 73.113281 L 172.429688 73.285156 L 172.34375 74.199219 L 172.257812 75.144531 L 176.570312 75.144531 L 176.570312 76.828125 L 174.515625 76.914062 L 172.429688 77 L 172.34375 78.628906 L 172.257812 80.285156 L 183.429688 80.285156 L 183.429688 68.855469 L 181.886719 68.855469 L 182.65625 68.058594 C 183.714844 66.972656 184.285156 65.398438 184.285156 63.65625 C 184.257812 58.742188 179.113281 55.65625 174.65625 57.855469 Z M 172.570312 68 L 173.171875 68.855469 L 169.972656 68.855469 L 170.429688 68 C 170.6875 67.515625 171.113281 67.144531 171.429688 67.144531 C 171.714844 67.144531 172.230469 67.515625 172.570312 68 Z M 182 78.570312 C 182 78.886719 181.828125 79.144531 181.601562 79.144531 C 181.085938 79.144531 180.769531 78.6875 181 78.285156 C 181.3125 77.769531 182 77.972656 182 78.570312 Z M 182 78.570312 "/>
<path style=" stroke:none;fill-rule:nonzero;fill:rgb(0%,0%,0%);fill-opacity:1;" d="M 208.171875 65.429688 C 207.113281 65.769531 205.742188 67.027344 205.257812 68.199219 C 204.199219 70.65625 205.113281 74.601562 207.058594 75.886719 C 208.800781 77.058594 211.769531 77.058594 213.515625 75.886719 C 216 74.199219 216.65625 70.3125 214.972656 67.398438 C 213.886719 65.542969 210.769531 64.65625 208.171875 65.429688 Z M 212.3125 68.257812 C 213.058594 69 213.144531 69.285156 213.144531 70.941406 C 213.144531 73.144531 212.515625 74.171875 210.972656 74.457031 C 208.628906 74.886719 207.285156 73.34375 207.484375 70.484375 C 207.601562 69.058594 207.742188 68.65625 208.398438 68.085938 C 209.542969 67.113281 211.230469 67.171875 212.3125 68.257812 Z M 212.3125 68.257812 "/>
<path style=" stroke:none;fill-rule:nonzero;fill:rgb(0%,0%,0%);fill-opacity:1;" d="M 190.570312 71 L 190.570312 76.570312 L 193.113281 76.570312 L 193.199219 73 L 193.285156 69.457031 L 194.714844 72.941406 C 195.972656 76 196.230469 76.429688 196.855469 76.515625 C 197.542969 76.601562 197.6875 76.34375 199.085938 73.085938 L 200.542969 69.570312 L 200.570312 73.058594 L 200.570312 76.570312 L 203.144531 76.570312 L 203.144531 65.398438 L 201.515625 65.484375 L 199.855469 65.570312 L 198.371094 69.144531 C 196.972656 72.542969 196.886719 72.6875 196.601562 71.914062 C 196.429688 71.484375 195.769531 69.828125 195.113281 68.285156 L 193.941406 65.429688 L 190.570312 65.429688 Z M 190.570312 71 "/>
<path style=" stroke:none;fill-rule:nonzero;fill:rgb(0%,0%,0%);fill-opacity:1;" d="M 216.570312 65.628906 C 216.601562 65.742188 217.457031 68.230469 218.542969 71.144531 L 220.457031 76.429688 L 221.886719 76.515625 L 223.285156 76.601562 L 225.113281 71.371094 C 226.144531 68.484375 227.027344 65.972656 227.085938 65.769531 C 227.171875 65.484375 226.886719 65.429688 225.855469 65.484375 L 224.484375 65.570312 L 223.199219 69.398438 L 221.914062 73.257812 L 220.570312 69.398438 L 219.230469 65.570312 L 217.886719 65.484375 C 217.171875 65.429688 216.570312 65.515625 216.570312 65.628906 Z M 216.570312 65.628906 "/>
<path style=" stroke:none;fill-rule:nonzero;fill:rgb(0%,0%,0%);fill-opacity:1;" d="M 228.285156 71 L 228.285156 76.570312 L 230.855469 76.570312 L 230.855469 65.429688 L 228.285156 65.429688 Z M 228.285156 71 "/>
<path style=" stroke:none;fill-rule:nonzero;fill:rgb(0%,0%,0%);fill-opacity:1;" d="M 232.855469 71 L 232.855469 76.570312 L 241.714844 76.570312 L 241.714844 74.285156 L 235.429688 74.285156 L 235.429688 72 L 240.855469 72 L 240.855469 69.714844 L 235.429688 69.714844 L 235.429688 67.429688 L 241.429688 67.429688 L 241.429688 65.429688 L 232.855469 65.429688 Z M 232.855469 71 "/>
<path style=" stroke:none;fill-rule:nonzero;fill:rgb(0%,0%,0%);fill-opacity:1;" d="M 187.714844 69.3125 C 186.570312 70.027344 185.800781 70.285156 184.941406 70.285156 L 183.714844 70.285156 L 183.714844 75.429688 L 185.144531 75.429688 C 186.230469 75.429688 186.886719 75.628906 187.941406 76.285156 C 188.714844 76.742188 189.429688 77.144531 189.542969 77.144531 C 189.628906 77.144531 189.714844 75.144531 189.714844 72.714844 C 189.714844 70.285156 189.628906 68.285156 189.515625 68.3125 C 189.371094 68.3125 188.570312 68.769531 187.714844 69.3125 Z M 187.714844 69.3125 "/>
<path style=" stroke:none;fill-rule:nonzero;fill:rgb(0%,0%,0%);fill-opacity:1;" d="M 197.144531 80.570312 C 197.144531 80.714844 197.34375 80.855469 197.570312 80.855469 C 197.855469 80.855469 198 81.3125 198.085938 82.484375 L 198.171875 84.144531 L 198.230469 82.484375 C 198.285156 81.058594 198.371094 80.855469 198.855469 80.855469 C 199.171875 80.855469 199.429688 80.714844 199.429688 80.570312 C 199.429688 80.398438 198.914062 80.285156 198.285156 80.285156 C 197.65625 80.285156 197.144531 80.398438 197.144531 80.570312 Z M 197.144531 80.570312 "/>
<path style=" stroke:none;fill-rule:nonzero;fill:rgb(0%,0%,0%);fill-opacity:1;" d="M 202.941406 82.144531 C 202.941406 83.230469 203 83.714844 203.058594 83.199219 C 203.171875 82.398438 203.285156 82.285156 204.027344 82.285156 C 204.769531 82.285156 204.855469 82.371094 204.855469 83.144531 C 204.855469 83.601562 205 84 205.144531 84 C 205.3125 84 205.429688 83.230469 205.429688 82.285156 C 205.429688 81.34375 205.3125 80.570312 205.144531 80.570312 C 205 80.570312 204.855469 80.886719 204.855469 81.285156 C 204.855469 81.886719 204.714844 82 204.027344 82 C 203.285156 82 203.171875 81.886719 203.058594 81.058594 C 203 80.570312 202.941406 81.027344 202.941406 82.144531 Z M 202.941406 82.144531 "/>
<path style=" stroke:none;fill-rule:nonzero;fill:rgb(0%,0%,0%);fill-opacity:1;" d="M 209.058594 80.484375 C 208.941406 80.570312 208.855469 81.429688 208.855469 82.34375 L 208.855469 84 L 210.230469 83.941406 C 211.457031 83.914062 211.484375 83.886719 210.515625 83.800781 C 209.601562 83.6875 209.429688 83.570312 209.429688 83 C 209.429688 82.429688 209.601562 82.3125 210.515625 82.199219 L 211.570312 82.085938 L 210.515625 82.058594 C 209.628906 82 209.429688 81.886719 209.429688 81.429688 C 209.429688 80.972656 209.628906 80.855469 210.429688 80.855469 C 210.972656 80.855469 211.429688 80.714844 211.429688 80.570312 C 211.429688 80.257812 209.34375 80.171875 209.058594 80.484375 Z M 209.058594 80.484375 "/>
<path style=" stroke:none;fill-rule:nonzero;fill:rgb(0%,0%,0%);fill-opacity:1;" d="M 215.855469 80.570312 C 215.457031 81.230469 214.628906 84 214.828125 84 C 214.972656 84 215.144531 83.742188 215.230469 83.429688 C 215.429688 82.6875 216.457031 82.6875 216.855469 83.457031 C 217.457031 84.542969 217.429688 83.828125 216.828125 82.058594 C 216.199219 80.199219 216.144531 80.113281 215.855469 80.570312 Z M 216.457031 82.484375 C 216.398438 82.570312 216.144531 82.570312 215.914062 82.515625 C 215.601562 82.457031 215.570312 82.257812 215.769531 81.714844 L 216.058594 81 L 216.3125 81.6875 C 216.457031 82.058594 216.515625 82.429688 216.457031 82.484375 Z M 216.457031 82.484375 "/>
<path style=" stroke:none;fill-rule:nonzero;fill:rgb(0%,0%,0%);fill-opacity:1;" d="M 220.570312 80.570312 C 220.570312 80.714844 220.769531 80.855469 221 80.855469 C 221.285156 80.855469 221.429688 81.3125 221.515625 82.484375 L 221.601562 84.144531 L 221.65625 82.484375 C 221.714844 81.058594 221.800781 80.855469 222.285156 80.855469 C 222.601562 80.855469 222.855469 80.714844 222.855469 80.570312 C 222.855469 80.398438 222.34375 80.285156 221.714844 80.285156 C 221.085938 80.285156 220.570312 80.398438 220.570312 80.570312 Z M 220.570312 80.570312 "/>
<path style=" stroke:none;fill-rule:nonzero;fill:rgb(0%,0%,0%);fill-opacity:1;" d="M 226.34375 82.199219 C 226.34375 83.285156 226.429688 83.714844 226.484375 83.199219 C 226.65625 82 227.515625 81.941406 228 83.144531 C 228.199219 83.601562 228.484375 84 228.628906 84 C 228.769531 84 228.6875 83.65625 228.457031 83.230469 C 228.113281 82.570312 228.113281 82.371094 228.484375 81.828125 C 228.828125 81.285156 228.828125 81.144531 228.429688 80.742188 C 228.171875 80.484375 227.570312 80.285156 227.113281 80.285156 L 226.285156 80.285156 Z M 228.230469 81.34375 C 228.171875 81.65625 227.828125 81.886719 227.34375 81.941406 C 226.714844 82.027344 226.570312 81.914062 226.570312 81.457031 C 226.570312 80.972656 226.742188 80.855469 227.457031 80.855469 C 228.144531 80.855469 228.3125 80.972656 228.230469 81.34375 Z M 228.230469 81.34375 "/>
<path style=" stroke:none;fill-rule:nonzero;fill:rgb(0%,0%,0%);fill-opacity:1;" d="M 232.199219 80.484375 C 232.085938 80.570312 232 81.429688 232 82.34375 L 232 84 L 233.371094 83.941406 C 234.601562 83.914062 234.628906 83.886719 233.65625 83.800781 C 232.742188 83.6875 232.570312 83.570312 232.570312 83 C 232.570312 82.429688 232.742188 82.3125 233.65625 82.199219 L 234.714844 82.085938 L 233.65625 82.058594 C 232.769531 82 232.570312 81.886719 232.570312 81.429688 C 232.570312 80.972656 232.769531 80.855469 233.570312 80.855469 C 234.113281 80.855469 234.570312 80.714844 234.570312 80.570312 C 234.570312 80.257812 232.484375 80.171875 232.199219 80.484375 Z M 232.199219 80.484375 "/>
</g>
</svg>
